# AST/ASF file generated using VICON BodyLanguage
# -----------------------------------------------
:version 1.10
:name VICON
:units
  mass 1.0
  length 0.45
  angle deg
:documentation
   .ast/.asf automatically generated from VICON data using
   VICON BodyBuilder and BodyLanguage model FoxedUp or BRILLIANT.MOD
:root
   order TX TY TZ RX RY RZ
   axis XYZ
   position 0 0 0  
   orientation 0 -0 0 
:bonedata
  begin
     id 1 
     name lhipjoint
     direction 0.432694 -0.693742 0.575759 
     length 2.19277 
     axis 0 -0 0  XYZ
  end
  begin
     id 2 
     name lfemur
     direction 0.34202 -0.939693 0  
     length 6.69022  
     axis 0 -0 20  XYZ
    dof rx ry rz
    limits (-160.0 20.0)
           (-70.0 70.0)
           (-60.0 70.0)
  end
  begin
     id 3 
     name ltibia
     direction 0.34202 -0.939693 0   
     length 6.50337   
     axis 0 -0 20   XYZ
    dof rx
    limits (-10.0 170.0)
  end
  begin
     id 4 
     name lfoot
     direction 0.158999 -0.435969 0.885805   
     length 2.70564   
     axis -90 -1.13533e-015 20   XYZ
    dof rx rz
    limits (-45.0 90.0)
           (-70.0 20.0)
  end
  begin
     id 5 
     name ltoes
     direction -0.00592919 0.00964381 0.999936   
     length 1.29929   
     axis -90 -1.13533e-015 20   XYZ
    dof rx
    limits (-90.0 20.0)
  end
  begin
     id 6 
     name rhipjoint
     direction -0.414359 -0.700339 0.581234   
     length 2.17212  
     axis 0 -0 0  XYZ 
  end
  begin
     id 7 
     name rfemur
     direction -0.34202 -0.939693 0   
     length 7.17659   
     axis 0 -0 -20   XYZ
    dof rx ry rz
    limits (-160.0 20.0)
           (-70.0 70.0)
           (-70.0 60.0)
  end
  begin
     id 8 
     name rtibia
     direction -0.34202 -0.939693 0   
     length 6.36669   
     axis 0 -0 -20   XYZ
    dof rx
    limits (-10.0 170.0)
 end
 begin
     id 9 
     name rfoot
     direction -0.137064 -0.37658 0.916188   
     length 2.22351  
     axis -90 1.13533e-015 -20   XYZ
    dof rx rz
    limits (-45.0 90.0)
           (-20.0 70.0)
  end
  begin
     id 10 
     name rtoes
     direction -0.000784077 -0.00289101 0.999996   
     length 1.09522   
     axis -90 1.13533e-015 -20   XYZ
    dof rx
    limits (-90.0 20.0)
  end
  begin
     id 11 
     name lowerback
     direction -0.0176242 0.984912 -0.172157   
     length 1.65301   
     axis 0 -0 0   XYZ
    dof rx ry rz
    limits (-20.0 45.0)
           (-30.0 30.0)
           (-30.0 30.0)
  end
  begin
     id 12 
     name upperback
     direction -0.00218128 0.998776 -0.0494072   
     length 1.67776   
     axis 0 -0 0   XYZ
    dof rx ry rz
    limits (-20.0 45.0)
           (-30.0 30.0)
           (-30.0 30.0)
  end
  begin
     id 13 
     name thorax
     direction 0.00544186 0.999658 0.0255711   
     length 1.72293   
     axis 0 -0 0   XYZ
    dof rx ry rz
    limits (-20.0 45.0)
           (-30.0 30.0)
           (-30.0 30.0)
  end
  begin
     id 14 
     name lowerneck
     direction -0.105325 0.983841 0.144785   
     length 2.14226   
     axis 0 -0 0   XYZ
    dof rx ry rz
    limits (-20.0 45.0)
           (-30.0 30.0)
           (-30.0 30.0)
  end
  begin
     id 15 
     name upperneck
     direction 0.0547957 0.988053 -0.144041   
     length 2.17508   
     axis 0 -0 0   XYZ
    dof rx ry rz
    limits (-20.0 45.0)
           (-30.0 30.0)
           (-30.0 30.0)
  end
  begin
     id 16
     name head
     direction 0.0247488 0.997534 -0.0656813  
     length 2.20048  
     axis 0 -0 0   XYZ
    dof rx ry rz
    limits (-20.0 45.0)
           (-30.0 30.0)
           (-30.0 30.0)
  end
  begin
     id 17 
     name lclavicle
     direction 0.820559 0.567247 -0.0701026  
     length 4.09615  
     axis 0 -0 0   XYZ
    dof ry rz
    limits (-20.0 10.0)
           (0.0 20.0)
  end
  begin
     id 18 
     name lhumerus
     direction 0.999977 -0.0067566 -9.96392e-005   
     length 4.59333   
     axis -180 -30 -90   XYZ
    dof rx ry rz
    limits (-60.0 90.0)
           (-90.0 90.0)
           (-90.0 90.0)
  end
  begin
     id 19
     name lradius
     direction 1 -4.48982e-011 -2.53425e-027   
     length 2.81151   
     axis -180 -30 -90   XYZ
    dof rx
    limits (-10.0 170.0)
  end
  begin
     id 20
     name lwrist
     direction 1 -4.48939e-011 -7.39254e-028   
     length 1.40576   
     axis 2.56395e-016 90 90   XYZ
    dof ry
    limits (-180.0 0.0)
 end
  begin
     id 21 
     name lhand
     direction 1 -4.48939e-011 -1.47851e-027   
     length 0.895651   
     axis 9.43423e-016 90 90   XYZ
    dof rx rz
    limits (-90.0 90.0)
           (-45.0 45.0)
  end
  begin
     id 22 
     name lfingers
     direction 1 -4.48978e-011 -2.95702e-027   
     length 0.722097   
     axis 1.88685e-015 90 90   XYZ
    dof rx
    limits (0.0 90.0)
  end
  begin
     id 23
     name lthumb
     direction 0.707107 -6.34931e-011 0.707107   
     length 1.03679   
     axis -90 45 -9.86935e-015   XYZ
    dof rx rz
    limits (-45.0 45.0)
           (-45.0 45.0)
  end
  begin
     id 24 
     name rclavicle
     direction -0.831414 0.553102 -0.0531864   
     length 4.24872  
     axis 0 -0 0   XYZ 
    dof ry rz
    limits (-10.0 20.0)
           (-20.0 0.0)
  end
  begin
     id 25 
     name rhumerus
     direction -0.999916 -0.000939607 0.0129331  
     length 4.74834   
     axis -180 30 90   XYZ
    dof rx ry rz
    limits (-90.0 60.0)
           (-90.0 90.0)
           (-90.0 90.0)
  end
  begin
     id 26 
     name rradius
     direction -1 -4.48956e-011 -1.31752e-027   
     length 2.79907   
     axis -180 30 90   XYZ
    dof rx
    limits (-10.0 170.0)
  end
  begin
     id 27 
     name rwrist
     direction -1 -4.4897e-011 -7.39254e-028   
     length 1.39954   
     axis 2.56395e-016 -90 -90   XYZ
    dof ry
    limits (-180.0 0.0)
  end
  begin
     id 28
     name rhand
     direction -0.999997 -0.00250697 0.000800838   
     length 0.953304   
     axis 9.43423e-016 -90 -90   XYZ
    dof rx rz
    limits (-90.0 90.0)
           (-45.0 45.0)
  end
  begin
     id 29
     name rfingers
     direction -1 -4.48954e-011 -2.95702e-027   
     length 0.763342   
     axis 1.88685e-015 -90 -90   XYZ
    dof rx
    limits (0.0 90.0)
  end
  begin
     id 30
     name rthumb
     direction -0.709701 -0.00217037 0.7045   
     length 1.10115   
     axis -90 -45 9.86935e-015   XYZ
    dof rx rz
    limits (-45.0 45.0)
           (-45.0 45.0)
  end
:hierarchy
  begin
    root lhipjoint rhipjoint lowerback
    lhipjoint lfemur
    lfemur ltibia
    ltibia lfoot
    lfoot ltoes
    rhipjoint rfemur
    rfemur rtibia
    rtibia rfoot
    rfoot rtoes
    lowerback upperback
    upperback thorax
    thorax lowerneck lclavicle rclavicle
    lowerneck upperneck
    upperneck head
    lclavicle lhumerus
    lhumerus lradius
    lradius lwrist
    lwrist lhand lthumb
    lhand lfingers
    rclavicle rhumerus
    rhumerus rradius
    rradius rwrist
    rwrist rhand rthumb
    rhand rfingers
  end

#!OML:ASF G:\ViconDB\ViconDB\414\test\team2\shane.ASF
:FULLY-SPECIFIED
:DEGREES
81
root 4.42046 24.0396 -17.1762 -2.61995 2.71157 -5.68196
lowerback 16.0457 -0.680955 5.23077
upperback 2.3115 0.25883 3.471
thorax -6.52624 0.04248 0.681339
lowerneck -20.1426 -3.85618 -7.48237
upperneck 12.6955 -4.58436 8.29106
head 7.57304 -1.76776 3.40444
rclavicle -8.74653e-015 -2.8625e-014
rhumerus 53.0973 -18.4361 335.724
rradius 70.9504
rwrist 22.3341
rhand -40.2621 -24.6789
rfingers 7.12502
rthumb -13.2204 -54.2397
lclavicle -8.74653e-015 -2.8625e-014
lhumerus -122.182 -202.387 204.049
lradius 61.4164
lwrist 1.94902
lhand -52.5927 18.8814
lfingers 7.12502
lthumb -25.0755 47.2551
rfemur 5.56292 -13.9945 16.3763
rtibia 19.1147
rfoot 2.2156 2.56522
rtoes -8.18178
lfemur 2.56337 12.6397 -4.22548
ltibia 28.317
lfoot -4.26755 -16.0501
ltoes -3.33771
82
root 4.42333 23.844 -17.1842 -2.55209 2.68353 -5.49332
lowerback 16.0338 -0.611754 4.95389
upperback 2.37883 0.285928 3.31413
thorax -6.44688 0.0622734 0.662718
lowerneck -20.2459 -3.82599 -6.97938
upperneck 12.7997 -4.65546 8.12464
head 7.61457 -1.78881 3.25716
rclavicle -8.74653e-015 -2.8625e-014
rhumerus 53.0973 -18.4361 335.724
rradius 70.9504
rwrist 22.3341
rhand -40.2621 -24.6789
rfingers 7.12502
rthumb -13.2204 -54.2397
lclavicle -2.27608e-014 -3.37934e-014
lhumerus -122.808 -201.086 203.377
lradius 61.4726
lwrist 2.25658
lhand -52.3614 18.6922
lfingers 7.12502
lthumb -24.8539 47.0967
rfemur 5.25468 -13.9895 16.1765
rtibia 18.7366
rfoot 2.28118 2.50561
rtoes -8.24163
lfemur 2.23548 12.936 -4.29339
ltibia 28.2261
lfoot -3.82364 -16.0229
ltoes -3.42024
83
root 4.43513 23.63 -17.1916 -2.49575 2.67249 -5.41245
lowerback 16.0155 -0.593163 5.01882
upperback 2.44915 0.311932 3.25541
thorax -6.35988 0.0749294 0.556856
lowerneck -19.7299 -3.75701 -7.47196
upperneck 12.2544 -4.54679 8.82399
head 7.37122 -1.71174 3.58476
rclavicle -8.74653e-015 -2.8625e-014
rhumerus 53.0973 -18.4361 335.724
rradius 70.9504
rwrist 22.3341
rhand -40.2621 -24.6789
rfingers 7.12502
rthumb -13.2204 -54.2397
lclavicle -2.18663e-015 2.06736e-014
lhumerus -123.388 -199.718 203.063
lradius 61.4801
lwrist 2.76243
lhand -51.9435 17.8969
lfingers 7.12502
lthumb -24.4534 46.3561
rfemur 4.97302 -13.8079 16.0877
rtibia 18.3724
rfoot 2.39813 2.27186
rtoes -7.63831
lfemur 1.94479 12.963 -4.30398
ltibia 28.0966
lfoot -3.51261 -16.0033
ltoes -2.9435
84
root 4.4407 23.4043 -17.2013 -2.46215 2.69478 -5.32662
lowerback 16.099 -0.563694 4.95834
upperback 2.5299 0.339429 3.21589
thorax -6.31828 0.0907607 0.542616
lowerneck -20.2277 -3.85123 -7.20535
upperneck 12.4785 -4.6842 8.55472
head 7.52603 -1.77564 3.43272
rclavicle -8.74653e-015 -2.8625e-014
rhumerus 53.0973 -18.4361 335.724
rradius 70.9504
rwrist 22.3341
rhand -40.2621 -24.6789
rfingers 7.12502
rthumb -13.2204 -54.2397
lclavicle 1.68967e-015 -5.08889e-014
lhumerus -124.1 -198.383 202.606
lradius 61.1441
lwrist 2.3242
lhand -51.8076 17.1829
lfingers 7.12502
lthumb -24.3231 45.6596
rfemur 4.6946 -13.5031 16.0295
rtibia 18.0644
rfoot 2.38374 1.76728
rtoes -7.97809
lfemur 1.63046 13.1947 -4.28985
ltibia 27.8993
lfoot -3.21041 -16.1438
ltoes -3.36937
85
root 4.45274 23.155 -17.2113 -2.41972 2.64998 -5.28334
lowerback 16.0065 -0.49929 5.04416
upperback 2.66463 0.421018 3.17117
thorax -6.11989 0.132946 0.427168
lowerneck -20.3875 -3.89048 -7.3925
upperneck 12.4959 -4.71667 8.78494
head 7.57265 -1.77446 3.53641
rclavicle -8.74653e-015 -2.8625e-014
rhumerus 53.0973 -18.4361 335.724
rradius 70.9504
rwrist 22.3341
rhand -40.2621 -24.6789
rfingers 7.12502
rthumb -13.2204 -54.2397
lclavicle -6.16232e-015 1.86858e-014
lhumerus -124.424 -197.034 202.484
lradius 61.0927
lwrist 3.14357
lhand -50.5011 19.0163
lfingers 7.12502
lthumb -23.07 47.6553
rfemur 4.39306 -13.2592 15.9708
rtibia 17.7531
rfoot 2.56187 1.44112
rtoes -8.15556
lfemur 1.37734 13.3053 -4.24989
ltibia 27.6409
lfoot -2.85866 -16.2648
ltoes -3.27103
86
root 4.45997 22.8913 -17.2206 -2.42474 2.58717 -5.28925
lowerback 16.1154 -0.459338 5.08519
upperback 2.70836 0.48396 3.13526
thorax -6.12998 0.1627 0.352794
lowerneck -20.2211 -3.93273 -7.36108
upperneck 12.3393 -4.78449 8.78991
head 7.49851 -1.8101 3.52329
rclavicle -8.74653e-015 -2.8625e-014
rhumerus 53.0973 -18.4361 335.724
rradius 70.9504
rwrist 22.3341
rhand -40.2621 -24.6789
rfingers 7.12502
rthumb -13.2204 -54.2397
lclavicle 8.94531e-016 6.75868e-015
lhumerus -125.059 -195.518 202.103
lradius 60.7031
lwrist 3.07631
lhand -50.6346 17.1742
lfingers 7.12502
lthumb -23.1981 45.7972
rfemur 4.1534 -13.2852 15.8959
rtibia 17.4846
rfoot 2.93843 1.50643
rtoes -8.18248
lfemur 1.13443 13.2671 -4.18404
ltibia 27.296
lfoot -2.46042 -16.6227
ltoes -3.13144
87
root 4.47571 22.613 -17.2352 -2.35272 2.51857 -5.24852
lowerback 16.3496 -0.457761 5.19239
upperback 2.65159 0.520518 3.06007
thorax -6.31583 0.173515 0.206246
lowerneck -20.2258 -3.86106 -7.13783
upperneck 12.3537 -4.74044 8.73303
head 7.49347 -1.78318 3.47335
rclavicle -8.74653e-015 -2.8625e-014
rhumerus 53.0973 -18.4361 335.724
rradius 70.9504
rwrist 22.3341
rhand -40.2621 -24.6789
rfingers 7.12502
rthumb -13.2204 -54.2397
lclavicle -9.54166e-015 6.75868e-015
lhumerus -125.722 -193.9 201.844
lradius 60.3751
lwrist 2.55988
lhand -50.4624 16.2808
lfingers 7.12502
lthumb -23.0328 44.9244
rfemur 3.75976 -13.2695 15.7797
rtibia 17.2998
rfoot 3.16495 1.94281
rtoes -8.85097
lfemur 0.782208 13.1522 -4.27392
ltibia 26.8299
lfoot -1.86629 -16.884
ltoes -3.04056
88
root 4.49221 22.3193 -17.2482 -2.28074 2.44882 -5.3022
lowerback 16.4894 -0.392788 5.29918
upperback 2.64514 0.644961 3.18429
thorax -6.39547 0.231361 0.252584
lowerneck -20.2108 -3.91415 -7.24324
upperneck 12.4425 -4.73337 8.41844
head 7.51211 -1.81462 3.38635
rclavicle -8.74653e-015 -2.8625e-014
rhumerus 53.0973 -18.4361 335.724
rradius 70.9504
rwrist 22.3341
rhand -40.2621 -24.6789
rfingers 7.12502
rthumb -13.2204 -54.2397
lclavicle 5.96354e-015 -2.78299e-014
lhumerus -126.413 -192.312 201.924
lradius 60.2384
lwrist 2.95948
lhand -50.405 15.3195
lfingers 7.12502
lthumb -22.9778 43.97
rfemur 3.38267 -13.5476 15.6889
rtibia 17.1247
rfoot 3.59528 2.51333
rtoes -8.76009
lfemur 0.379019 12.9712 -4.29575
ltibia 26.2763
lfoot -1.10121 -17.134
ltoes -2.99207
89
root 4.5129 22.0074 -17.2685 -2.25005 2.35711 -5.31694
lowerback 16.8911 -0.346909 5.54061
upperback 2.59859 0.784057 3.19012
thorax -6.65717 0.287721 0.0939556
lowerneck -20.4107 -3.90425 -7.07595
upperneck 12.6364 -4.69214 8.00525
head 7.58969 -1.82017 3.22567
rclavicle -8.74653e-015 -2.8625e-014
rhumerus 53.0973 -18.4361 335.724
rradius 70.9504
rwrist 22.3341
rhand -40.2621 -24.6789
rfingers 7.12502
rthumb -13.2204 -54.2397
lclavicle 1.30204e-014 -2.06736e-014
lhumerus -126.998 -190.673 202.049
lradius 59.8872
lwrist 2.77121
lhand -49.5603 13.8159
lfingers 7.12502
lthumb -22.167 42.565
rfemur 3.00757 -13.9209 15.5403
rtibia 16.9447
rfoot 4.02083 3.4085
rtoes -9.61804
lfemur -0.0133316 12.8326 -4.36696
ltibia 25.682
lfoot -0.219046 -17.3211
ltoes -3.20522
90
root 4.53872 21.6838 -17.2857 -2.19526 2.22303 -5.24093
lowerback 17.1496 -0.277759 5.70154
upperback 2.59837 0.926283 3.19833
thorax -6.79075 0.350003 -0.019409
lowerneck -20.5637 -3.858 -7.0518
upperneck 12.7909 -4.60167 7.81961
head 7.653 -1.78944 3.17138
rclavicle -8.74653e-015 -2.8625e-014
rhumerus 53.0973 -18.4361 335.724
rradius 70.9504
rwrist 22.3341
rhand -40.2621 -24.6789
rfingers 7.12502
rthumb -13.2204 -54.2397
lclavicle 1.44119e-014 6.52014e-014
lhumerus -127.632 -189.013 202.337
lradius 59.5346
lwrist 2.65677
lhand -49.2034 13.2176
lfingers 7.12502
lthumb -21.8243 42.007
rfemur 2.62021 -14.1908 15.2381
rtibia 16.7858
rfoot 4.39213 4.09525
rtoes -10.2226
lfemur -0.428977 12.8559 -4.61128
ltibia 25.0564
lfoot 0.564309 -17.4222
ltoes -3.08986
